<?xml version="1.0" encoding="UTF-8"?>
<svg id="Layer_1" xmlns="http://www.w3.org/2000/svg" version="1.1" viewBox="0 0 1108.6 406.3">
  <!-- Generator: Adobe Illustrator 30.5.1, SVG Export Plug-In . SVG Version: 2.1.4 Build 3)  -->
  <defs>
    <style>
      .st0, .st1 {
        fill: #f58220;
      }

      .st2, .st1, .st3 {
        fill-rule: evenodd;
      }

      .st2, .st4 {
        fill: #fff;
      }

      .st3 {
        fill: #4d4d4f;
      }

      .st5 {
        fill: #333132;
      }
    </style>
  </defs>
  <path class="st3" d="M651.2,72.3v-15.1c0-1.7-.4-3.2-1.2-4.8-.8-1.5-1.9-2.8-3.2-3.8-1.3-1-2.7-1.9-4.2-2.5-1.5-.6-2.9-.9-4.3-.9h-67.6v27.1h80.5ZM836.1,58.9h-27.2c0-.4,0-.9,0-1.6,0-.6-.2-1.2-.4-1.7-.3-1.1-.9-2.4-1.7-3.7-.8-1.4-2-2.6-3.4-3.7-1.1-.8-2.4-1.5-3.9-1.9-1.5-.5-2.6-.7-3.4-.7h-69.4v26.9h68.3v26.8h-68.3v15.1c0,1.6.4,3.1,1.2,4.5.8,1.4,1.9,2.7,3.1,3.8,1.2,1.1,2.6,1.9,4.1,2.6,1.5.6,3,.9,4.4.9h69.3v-13.4h27.2v25.8h-47.8v14.2h-57.3c-.9,0-2.1-.2-3.3-.5-1.3-.4-2.6-.7-3.8-1.2-1.2-.4-2.4-.8-3.3-1.2-1-.4-1.6-.7-1.9-.9-2.9-1.5-5.6-3.4-7.9-5.8-2.4-2.4-4.4-4.9-6.1-7.6-1.7-2.7-3-5.4-3.9-8.2-.9-2.8-1.4-5.3-1.4-7.7V18.7h102.9c3.7,0,7.6.9,11.6,2.6,4,1.8,7.7,4.1,11.1,7.1,3.4,3,6.1,6.4,8.3,10.2,2.1,3.8,3.2,7.8,3.2,12v8.3ZM678,99.4h-64.8l66.3,53.4h-41.9l-67-53.4v53.4c-2.3-.5-4.6-1.4-6.9-2.6-2.3-1.2-4.7-2.7-7.1-4.6-1.9-1.6-3.6-3.4-5.2-5.5-1.6-2.1-3-4.4-4-6.7-1.1-2.3-1.9-4.6-2.6-6.9-.6-2.3-.9-4.4-.9-6.2V18.1h100.7c3.6,0,7.4.9,11.4,2.7,4,1.8,7.6,4.2,10.8,7.2,3.3,3,5.9,6.4,8,10.3,2.1,3.9,3.1,7.9,3.1,12.1v49.1ZM523.2,153.1h-109.9c-.1,0-.5-.1-1.2-.4-.7-.3-1.5-.5-2.3-.9-.8-.3-1.5-.6-2.2-.9-.7-.3-1-.5-1-.6-2.9-1.4-5.6-3.2-7.9-5.6s-4.4-5-6.1-7.7c-1.7-2.8-2.9-5.5-3.8-8.3-.9-2.8-1.3-5.4-1.3-7.8V18.9h102c4,0,8.1,1,12.1,2.9,4,1.9,7.7,4.4,10.8,7.6,3.2,3.1,5.8,6.7,7.8,10.7,2,4,3,8.1,3,12.2v100.9ZM370.5,74.5h-27.4v-15.1c0-.1,0-.4,0-.9,0-.5-.2-1-.4-1.6-.5-1.1-1.1-2.3-1.8-3.3-.7-1.1-1.7-2.2-3.2-3.2-.5-.4-1.1-.8-1.7-1.1-.6-.3-1.2-.6-1.9-.8-.5-.2-1.2-.4-2.2-.6-.9-.2-1.5-.3-1.7-.3h-69.6v67.9c0,.3.3,1.1.8,2.3.3,1.2.9,2.4,1.8,3.5.9,1.1,1.9,2.1,3.1,2.9s2.4,1.5,3.7,1.9c1.2.4,2.4.6,3.4.5v.2h69.7v-25.5h27.4v52h-97.7c-86.1,54.7-186.4,136.5-238.9,207.2,46.8-79.4,122.2-155.8,206.6-220.4-.7-1-1.4-2-2-3.1-.6-1-1.1-2-1.5-3-94.4,72.5-171.8,156.6-220.6,246.7,44.1-104.4,120-201.9,217.3-289.3v-8.7C126.1,179.7,44.6,289.8,0,406.3,39.7,268.2,119.4,140,233.6,20.9h0s0,0,0,0h102.7c.3,0,.8.1,1.4.3,2.4.2,4.4.6,5.9,1.1.8.2,1.8.5,2.8.8,1,.3,2,.7,2.8,1.1,2,.8,4.2,2.2,6.8,4.1,2.5,1.9,4.7,4,6.6,6.4.6.8,1.2,1.7,1.8,2.6.6.9,1.1,1.6,1.6,2.3.3.6.6,1.3,1,2,.4.7.7,1.4.9,2,0,.2,0,.4.2.5.1.2.2.3.3.5.2.7.4,1.5.6,2.3.2.8.4,1.6.6,2.2.2.8.4,1.8.5,2.9.2,1.1.2,1.7.2,1.9v20.6ZM294.1,182.3c-78.6,40.2-185.9,106.9-241.2,161.9,50.4-62.9,144.9-136.6,222.8-185.4l18.4-.2v23.7ZM294.1,216c-71.5,28.7-164.4,74.6-220.8,115.9,51.7-47.9,150.6-107.7,220.8-143.3v27.4ZM294.1,243.2c-65.1,19.4-142.5,49.6-198.7,79.4,51.8-35.3,135.3-74.9,198.7-100v20.6ZM294.1,268.5c-59.1,12-120.2,27.6-174.7,47.5,50.5-24.6,117.7-49,174.7-65.7v18.2ZM303,286.1c-53.3,6.1-106.1,14.2-157.5,26,47.8-15.8,97.8-28,148.7-38,2.9,4.1,5.8,8.1,8.8,12M315.4,301.3c-47.3,1.5-94.5,4.4-141.4,9.6,43.7-8.6,88.1-14.9,132.9-19.7,2.8,3.4,5.6,6.8,8.5,10M328.2,314.8c-40.7-1.8-81.6-2.7-122.5-2.3,38.1-3.2,76.3-5,114.5-5.9,2.6,2.8,5.3,5.5,8,8.2M341.3,326.8c-33.2-3.7-66.6-7-100.2-9.6,31.1.4,62,1.6,92.9,3.2,2.4,2.2,4.8,4.4,7.2,6.5M354.6,337.6c-24.3-4.3-48.8-8.3-73.3-12.2,22.5,2.3,44.9,4.8,67.3,7.5,2,1.6,4,3.1,6,4.7"/>
  <path class="st0" d="M496.1,126.3V58c0-1.7-.4-3.2-1.3-4.7-.9-1.5-2-2.7-3.3-3.8-1.3-1.1-2.7-1.9-4.2-2.6-1.5-.6-2.9-.9-4.3-.9h-68.8v68.7c0,1.6.4,3,1.3,4.4.9,1.4,2,2.6,3.3,3.7,1.3,1.1,2.7,1.9,4.2,2.6,1.5.6,2.8.9,4,.9h69.1Z"/>
  <path class="st2" d="M663.9,54.2v-12c0-1.2-.3-2.2-.9-3.2-.6-1.1-1.4-2.1-2.4-2.9-1.1-.8-2.2-1.5-3.5-2-1-.4-2-.7-3.1-.7h-64.4v20.8h74.2ZM508.8,108.2V43c0-1.1-.3-2.1-.9-3.1-.7-1.2-1.6-2.2-2.6-3-1-.9-2.2-1.6-3.4-2.1-1-.4-2-.7-3.1-.7h-65.7v65.6c0,1,.3,1.9.8,2.8.7,1.1,1.6,2.1,2.6,3,1,.9,2.2,1.6,3.4,2.1.8.3,1.9.7,2.8.7h66ZM745.5,33.7v20.7h68.3v33h-68.3v12c0,1.1.3,2,.8,3,.7,1.1,1.5,2.1,2.5,3,1,.9,2.1,1.5,3.3,2,1,.4,2.1.7,3.2.7h66.2v-13.4h33.5v46.3h-108.2c-1.4,0-2.8-.3-4.2-.7-1.3-.4-2.7-.8-4-1.2-1.2-.4-2.4-.8-3.6-1.3-.7-.3-1.6-.7-2.3-1.1-3.2-1.6-6.1-3.7-8.6-6.3-2.5-2.5-4.7-5.2-6.5-8.2-1.7-2.8-3.1-5.7-4.2-8.8-.9-2.8-1.6-5.7-1.6-8.7V.6h106c4.5,0,8.8,1.1,12.9,2.9,4.3,1.9,8.3,4.5,11.9,7.6,3.6,3.2,6.6,6.8,8.9,11,2.3,4.2,3.6,8.7,3.6,13.5v11.4h-33.5v-3.1c0-.4,0-.9,0-1.3,0-.3,0-.6-.2-.8v-.2c0,0-.1-.2-.1-.2-.3-1-.8-2-1.4-2.9-.7-1.1-1.6-2.1-2.6-2.9-.9-.7-1.9-1.1-3-1.5-.7-.2-1.8-.5-2.5-.5h-66.3ZM637.9,87.6l66.3,53.4h-51.8l-62.7-50.1v50.8l-3.8-.9c-2.7-.6-5.2-1.6-7.7-2.8-2.7-1.4-5.2-3.1-7.7-5-2.1-1.8-4-3.8-5.7-6-1.7-2.3-3.2-4.7-4.4-7.3-1.1-2.4-2.1-4.9-2.8-7.4-.6-2.3-1-4.7-1-7.1V0h103.9c4.4,0,8.7,1.2,12.7,3,4.3,2,8.1,4.5,11.6,7.7,3.5,3.2,6.4,6.9,8.7,11.1,2.2,4.2,3.5,8.8,3.5,13.5v52.2h-59ZM420.6,138c-3.1-1.5-5.9-3.6-8.4-6-2.5-2.5-4.7-5.3-6.5-8.3-1.7-2.8-3.1-5.8-4.1-9-.9-2.8-1.5-5.8-1.5-8.7V.8h105.1c4.7,0,9.2,1.2,13.5,3.2,4.3,2.1,8.3,4.8,11.7,8.2,3.4,3.4,6.2,7.2,8.4,11.5,2.2,4.3,3.4,8.8,3.4,13.6v104h-113c-.8,0-1.6-.3-2.3-.6-.8-.3-1.6-.6-2.4-.9-.8-.3-1.6-.6-2.3-1-.5-.2-1-.5-1.5-.8M279.5,35.7v64.4c0,.5.4,1.1.5,1.5v.2c0,0,.1.2.1.2.2.9.6,1.6,1.2,2.3.7.9,1.5,1.6,2.5,2.3.9.6,1.8,1.1,2.9,1.5.7.2,1.4.4,2.1.3l3.4-.3v.5h63.5v-25.5h33.7v58.3h-114c-.7,0-1.4-.2-2.1-.4-.8-.3-1.6-.5-2.4-.8-.8-.3-1.7-.7-2.5-1-.6-.3-1.3-.6-1.8-1-.4-.3-.8-.6-1.3-.8-.9-.5-1.7-1-2.5-1.6-4.6-3.2-8.5-7.3-11.3-12.2-2.3-4.1-4.1-8.5-4.7-13.1-.1-.7-.2-1.3-.3-2,0-.6-.2-1.3-.2-1.8V2.8h105.9c.7,0,1.4.2,2,.4,2.1.2,4.2.5,6.2,1.2.9.2,1.9.5,2.8.8,1.1.3,2.2.7,3.2,1.2,2.6,1.1,5.1,2.7,7.4,4.4,2.7,2,5.2,4.3,7.3,7,.7.9,1.3,1.8,1.9,2.7.4.7.9,1.3,1.4,2l.2.3.2.3c.3.7.7,1.4,1,2,.4.8.7,1.6,1,2.4v.3c.2.1.2.2.3.3v.3c.1,0,.2.3.2.3.2.8.4,1.6.6,2.4.2.7.3,1.3.6,1.9h0c0,.1,0,.2,0,.2.3,1,.5,2.1.6,3.2.1.7.3,1.6.3,2.4v23.7h-33.7v-18.1c0-.2,0-.5,0-.7,0-.2,0-.4-.1-.6-.5-1-1-2-1.6-3-.5-.9-1.5-1.7-2.5-2.4-.4-.3-.7-.5-1.2-.7-.5-.2-1-.4-1.6-.7-.5-.2-1.2-.3-1.7-.5-.4,0-.8-.2-1-.2h-66.5Z"/>
  <path class="st5" d="M852,43.9h-27.2c0-.4,0-.9,0-1.6,0-.6-.2-1.2-.4-1.7-.3-1.1-.9-2.4-1.7-3.7-.8-1.4-2-2.6-3.4-3.7-1.1-.8-2.4-1.5-3.9-1.9-1.5-.5-2.6-.7-3.4-.7h-69.4v26.9h68.3v26.8h-68.3v15.1c0,1.6.4,3.1,1.2,4.5.8,1.5,1.9,2.7,3.1,3.8,1.2,1.1,2.6,1.9,4.1,2.6,1.5.6,3,.9,4.4.9h69.3v-13.4h27.2v40h-105.1c-.9,0-2.1-.2-3.3-.5-1.3-.4-2.6-.8-3.8-1.2-1.2-.4-2.4-.8-3.3-1.2-1-.4-1.6-.7-1.9-.9-2.9-1.5-5.5-3.4-7.9-5.8-2.4-2.4-4.4-4.9-6.1-7.6-1.7-2.7-3-5.4-3.9-8.2-.9-2.8-1.4-5.3-1.4-7.7V3.8h102.9c3.7,0,7.6.9,11.6,2.6,4,1.8,7.7,4.1,11.1,7.1,3.4,3,6.1,6.4,8.3,10.2s3.2,7.8,3.2,12v8.3ZM667,57.3v-15.1c0-1.7-.4-3.2-1.2-4.7-.8-1.5-1.9-2.8-3.2-3.8-1.3-1-2.7-1.9-4.2-2.5-1.5-.6-2.9-.9-4.3-.9h-67.6v27.1h80.5ZM693.8,84.4h-64.8l66.3,53.4h-41.9l-67-53.4v53.4c-2.3-.5-4.6-1.4-6.9-2.6-2.3-1.2-4.7-2.7-7.1-4.6-1.9-1.6-3.6-3.4-5.2-5.5-1.6-2.1-3-4.4-4-6.7-1.1-2.3-1.9-4.6-2.6-6.9-.6-2.3-.9-4.4-.9-6.2V3.1h100.7c3.6,0,7.4.9,11.4,2.7,3.9,1.8,7.6,4.2,10.8,7.2,3.3,3,5.9,6.4,8,10.3,2.1,3.9,3.1,7.9,3.1,12.1v49.1ZM511.9,111.4V43c0-1.7-.4-3.2-1.3-4.7-.9-1.5-2-2.7-3.3-3.8-1.3-1.1-2.7-1.9-4.2-2.6-1.5-.6-2.9-.9-4.3-.9h-68.8v68.7c0,1.6.4,3,1.3,4.4.9,1.4,2,2.6,3.3,3.7,1.3,1.1,2.7,1.9,4.2,2.6,1.5.6,2.8.9,4,.9h69.1ZM539,138.2h-109.9c-.1,0-.5-.1-1.2-.4-.7-.3-1.5-.5-2.2-.9-.8-.3-1.5-.6-2.2-.9-.7-.3-1-.5-1-.6-2.9-1.4-5.5-3.2-7.9-5.6-2.4-2.4-4.4-5-6.1-7.7-1.7-2.8-2.9-5.5-3.8-8.3-.9-2.8-1.3-5.4-1.3-7.8V3.9h102c4.1,0,8.1,1,12.1,2.9,4,1.9,7.7,4.4,10.8,7.6,3.2,3.1,5.8,6.7,7.8,10.7,2,4,3,8.1,3,12.2v100.9ZM386.3,59.5h-27.4v-15.1c0-.1,0-.4,0-.9,0-.5-.2-1-.4-1.6-.5-1.1-1.1-2.3-1.8-3.3-.7-1.1-1.7-2.2-3.2-3.2-.5-.4-1.1-.8-1.7-1.1-.6-.3-1.2-.6-1.9-.8-.5-.2-1.2-.4-2.2-.6-.9-.2-1.5-.3-1.7-.3h-69.6v67.9c0,.3.3,1.1.8,2.3.3,1.2.9,2.4,1.8,3.5.9,1.1,1.9,2.1,3.1,2.9,1.2.8,2.4,1.5,3.7,1.9,1.2.4,2.4.6,3.4.5v.2h69.8v-25.5h27.4v52h-110.9c-.1,0-.5-.1-1.2-.3-.7-.2-1.4-.5-2.3-.8-.8-.3-1.6-.6-2.3-.9-.7-.3-1.1-.5-1.2-.6-.5-.4-1.1-.8-1.9-1.2-.7-.4-1.4-.8-2-1.3-4.6-3.2-8-7-10.4-11.2-2.4-4.3-3.8-8.3-4.4-12.2-.1-.5-.2-1.1-.3-1.9-.1-.7-.2-1.2-.2-1.4V5.9h102.8c.3,0,.8.1,1.4.3,2.4.2,4.4.6,5.9,1.1.8.2,1.8.5,2.8.8,1,.3,2,.7,2.8,1.1,2,.8,4.2,2.2,6.8,4,2.5,1.9,4.8,4,6.6,6.4.6.8,1.2,1.7,1.8,2.6.6.9,1.1,1.6,1.6,2.3.3.6.7,1.3,1,2,.4.7.6,1.4.9,2,0,.2,0,.4.2.5.1.2.2.3.3.5.2.7.4,1.5.6,2.3.2.8.4,1.6.6,2.2.2.8.4,1.8.5,2.9.2,1.1.2,1.7.2,1.9v20.6Z"/>
  <g>
    <path class="st4" d="M363.7,230.6l.2-44.2c0-.8-.3-1.5-.8-2.1-.5-.7-1.1-1.2-1.9-1.7-.7-.5-1.5-.9-2.4-1.2-.9-.3-1.7-.4-2.5-.4h-34.9c0-.1-.2,48.8-.2,48.8l42.4.8ZM378.3,242.3l-58.1-.2.5,38.1c-1.2-.2-2.5-.5-3.9-1-1.4-.5-2.8-1.2-4.2-2.1-2.2-1.4-4.1-3.2-5.5-5.5-1.4-2.3-2.1-4.3-2.1-6l.6-97,54.4.2h.9c.5,0,1.1.1,1.6.2.5,0,1,.1,1.5.3l3.6.9c1.2.3,2.3.8,3.5,1.5,1.2.7,2.3,1.5,3.3,2.4,1,.9,1.9,1.8,2.7,2.8.8,1,1.3,1.9,1.6,2.7.2.4.3.9.6,1.6.2.7.3,1,.3,1.1l-1.3,60.1Z"/>
    <path class="st4" d="M459.2,194.1h-13.8v-2.8c0-.9-.2-1.8-.6-2.6-.4-.8-1-1.5-1.6-2.1-.7-.6-1.4-1.1-2.1-1.4-.8-.3-1.5-.5-2.2-.5h-34.9v59.7c-1.1-.2-2.3-.6-3.5-1.3-1.3-.7-2.5-1.6-3.8-2.6-1-.9-1.9-1.9-2.7-3.1-.8-1.2-1.5-2.4-2-3.7-.6-1.3-1-2.6-1.3-3.8-.3-1.3-.5-2.4-.5-3.4v-56.8h51.8c1.9,0,3.9.5,5.9,1.5,2,1,3.9,2.3,5.6,4,1.7,1.7,3.1,3.6,4.2,5.7,1.1,2.2,1.6,4.4,1.6,6.7v6.6Z"/>
    <path class="st4" d="M526.5,229.2v-37.8c0-.9-.2-1.8-.7-2.6-.5-.8-1-1.5-1.7-2.1-.7-.6-1.5-1-2.3-1.4-.8-.3-1.6-.5-2.3-.5h-36.8v38c0,.9.3,1.7.8,2.4.5.8,1.1,1.4,1.8,2,.7.6,1.4,1,2.2,1.4.8.3,1.5.5,2.1.5h36.9ZM541,244.1h-58.7c0,0-.3,0-.6-.2-.3-.2-.7-.3-1.2-.5-.4-.2-.8-.4-1.2-.5-.3-.2-.6-.2-.6-.2-1.5-.8-2.9-1.8-4.2-3.1-1.2-1.3-2.3-2.8-3.2-4.3-.9-1.5-1.6-3.1-2.1-4.7-.5-1.6-.8-3-.8-4.2v-56.4h54.4c2.2,0,4.3.5,6.5,1.6,2.2,1.1,4.1,2.5,5.8,4.2,1.7,1.7,3.1,3.7,4.2,5.9,1.1,2.2,1.6,4.5,1.6,6.8v55.7Z"/>
    <path class="st4" d="M610.1,228.7v-44h-44.3v32.6c.1,1.5.3,3,.8,4.3.4,1.4,1,2.6,1.7,3.6.7,1,1.5,1.9,2.3,2.5.8.6,1.6.9,2.4.9h37.2ZM624.2,242.5h-56.4c-.3,0-.8-.1-1.3-.3-.6-.2-1.2-.5-1.7-.8-.6-.3-1.1-.6-1.6-.9s-.8-.5-1-.7c-1.3-.8-2.6-1.6-3.9-2.4-1.3-.8-2.4-1.8-3.5-2.8-1-1.1-1.9-2.4-2.5-3.8-.6-1.5-.9-3.2-.9-5.2v-55.7c-.1,0,58.7,0,58.7,0l-.5-31.1c1.5.9,2.9,1.8,4.2,2.8.9.7,1.9,1.8,2.8,3.2,1,1.4,1.9,3,2.7,4.7.9,1.7,1.6,3.5,2.3,5.3.7,1.8,1.1,3.5,1.3,4.9.2.7.3,1.4.4,2.1.1.7.3,1.4.4,2.2,0,.2,0,.5,0,1,0,.5,0,1.1.1,1.7,0,.6,0,1.2.1,1.7,0,.5,0,.8,0,.9v73.3Z"/>
    <path class="st4" d="M706.9,242.3h-55.8c-.5,0-1,0-1.7-.3-.7-.2-1.4-.4-2-.6-.7-.2-1.3-.5-1.8-.7-.5-.2-.9-.4-1-.5-1.5-.7-2.8-1.7-4.1-2.9-1.2-1.2-2.3-2.6-3.3-4-.9-1.4-1.6-2.9-2.1-4.4-.5-1.5-.7-2.9-.7-4.1v-52.9h14.5v49.9c0,.9.2,1.7.7,2.4.5.8,1,1.4,1.7,2,.7.6,1.4,1,2.3,1.4.8.3,1.6.5,2.3.5h36.6v-56.5c1.2.2,2.4.6,3.9,1.4,1.4.8,2.8,1.7,4.1,2.9,1.3,1.2,2.5,2.4,3.5,3.8,1,1.4,1.7,2.7,2,4,.2.3.3.7.4,1.2.1.5.2.9.3,1.3,0,.2.2.6.2,1,0,.5.1.7.1.8v54.3Z"/>
    <path class="st4" d="M788.3,199.5h-14.2v-8.2c0-.4-.1-.9-.3-1.5-.2-.6-.4-1.2-.8-1.9-.4-.6-1-1.2-1.7-1.7-.2-.2-.5-.3-.9-.5-.3-.2-.6-.4-.9-.5-.4-.2-.8-.3-1.3-.3-.5,0-.7-.1-.8-.1h-36.2v37.5c0,0,0,.2.1.5,0,.3.2.5.2.8.4,1.3,1.3,2.5,2.6,3.5,1.4,1,2.6,1.5,3.7,1.4,0,0,0,.1.1.1h36.2v-14.2h14.2v28.7h-57.4c-.2,0-.4,0-.8-.2-.3-.1-.7-.3-1.1-.5s-.8-.4-1.1-.5c-.3-.2-.6-.3-.6-.3-.3-.2-.6-.4-1-.6-.3-.3-.7-.5-1.1-.8-2.4-1.8-4.2-3.8-5.4-6.2-1.2-2.4-2-4.6-2.4-6.7,0-.2,0-.6-.1-1,0-.4,0-.7,0-.8v-55.3h54l3,.7,2.9,1c1,.5,2.2,1.2,3.5,2.2,1.4,1,2.5,2.2,3.5,3.6.8.9,1.3,1.8,1.6,2.7.2.3.3.7.5,1,.2.4.4.8.5,1.2.2.2.2.3.2.6.3.8.5,1.6.7,2.6.2.4.3.9.3,1.5,0,.6,0,1,0,1v11.4Z"/>
    <path class="st4" d="M834.4,242.5l-20.3-.5c-2.7,0-5-.7-6.8-1.8-1.9-1.1-3.4-2.7-4.5-4.8-1.2-2.1-2-4.5-2.6-7.4-.5-2.9-.8-6.1-.8-9.6l-.4-80.6h14.4l.4,20.5c0,1.2.2,2.5.7,3.7.5,1.2,1,2.3,1.6,3.3.6,1,1.3,1.7,2.1,2.3.8.6,1.5.9,2.2.9h13.3l.2,14h-19.9l.7,32.4c0,1.2.2,2.6.5,4,.3,1.4.7,2.8,1.3,3.9.5,1.2,1.2,2.2,2,3,.8.8,1.8,1.2,2.8,1.2h13.3l-.2,15.4Z"/>
    <path class="st4" d="M861.3,241.5c-1.1,0-2.4-.5-4-1.6-1.6-1.1-3.1-2.3-4.6-3.6-1.2-1.1-2.2-2.4-3.2-4.1-1-1.6-1.8-3.3-2.6-5.1-.7-1.8-1.3-3.5-1.7-5.3-.4-1.7-.6-3.3-.6-4.7v-43.2h16.6v67.5Z"/>
    <path class="st4" d="M929.1,229.2v-37.8c0-.9-.2-1.8-.7-2.6-.5-.8-1-1.5-1.7-2.1-.7-.6-1.5-1-2.3-1.4-.8-.3-1.6-.5-2.3-.5h-36.8v38c0,.9.3,1.7.8,2.4s1.1,1.4,1.8,2c.7.6,1.4,1,2.2,1.4.8.3,1.5.5,2.1.5h36.9ZM943.6,244.1h-58.7c0,0-.3,0-.6-.2-.3-.2-.7-.3-1.2-.5s-.8-.4-1.2-.5c-.3-.2-.6-.2-.6-.2-1.6-.8-2.9-1.8-4.2-3.1-1.2-1.3-2.3-2.8-3.2-4.3-.9-1.5-1.6-3.1-2.1-4.7-.5-1.6-.8-3-.8-4.2v-56.4h54.4c2.2,0,4.3.5,6.5,1.6,2.2,1.1,4.1,2.5,5.8,4.2,1.7,1.7,3.1,3.7,4.2,5.9,1.1,2.2,1.6,4.5,1.6,6.8v55.7Z"/>
    <path class="st4" d="M1026.8,242h-14.2v-52.4c0-.9-.2-1.8-.7-2.6-.5-.8-1-1.5-1.7-2.1-.7-.6-1.4-1.1-2.2-1.4-.8-.3-1.6-.5-2.3-.5h-36.8v59c-1.1-.2-2.3-.6-3.6-1.3-1.3-.7-2.6-1.5-3.9-2.6-1.1-.9-2.1-1.9-2.9-3-.9-1.2-1.6-2.4-2.2-3.7-.6-1.3-1.1-2.6-1.4-3.8-.3-1.3-.5-2.4-.5-3.4v-56.1h54.5c0,0,.2,0,.3,0,.2,0,.3,0,.5,0,.5,0,.9.1,1.4.2.5,0,.9.1,1.3.3.6.2,1.2.3,1.8.6.6.2,1.1.4,1.4.6,1.1.5,2.2,1.1,3.2,2,1.1.9,2.1,1.9,3,2.9.9,1,1.7,2.1,2.4,3.3.7,1.2,1.2,2.3,1.5,3.3.2.4.3,1,.6,1.8.2.8.3,1.3.2,1.4v57.4Z"/>
    <path class="st4" d="M1108.4,190.4h-14c0-.3,0-.7-.1-1.1,0-.4-.2-.8-.3-1.2-.5-1.3-1.4-2.4-2.7-3.2-1.3-.9-2.4-1.3-3.5-1.3h-35.5v8.5c0,1.3.5,2.6,1.5,3.8,1,1.2,2.1,2,3.4,2.3,0,0,0,.2.1.2h51.3v44.1h-54c-.4,0-.9,0-1.6-.3-.7-.2-1.4-.4-2-.6-.7-.2-1.3-.5-1.8-.7-.5-.2-.9-.4-.9-.5-1.5-.8-2.8-1.8-4-3.1-1.2-1.3-2.2-2.7-3.1-4.2-.9-1.5-1.6-3-2.1-4.5-.5-1.5-.8-2.9-.8-4.2v-4.2h14c0,1,0,2,.5,2.9.4.9.9,1.7,1.5,2.4.6.7,1.4,1.3,2.2,1.7.9.4,1.7.6,2.6.6h35.6v-8.2c0-.8-.2-1.6-.6-2.4-.4-.8-.9-1.5-1.6-2.2-.6-.7-1.4-1.2-2.2-1.6-.9-.4-1.7-.5-2.4-.5h-32.5c-1.3,0-2.8-.3-4.5-1-1.7-.7-3.3-1.6-4.8-2.8-1.6-1.2-2.9-2.6-4.2-4.1-1.2-1.5-2.1-3.1-2.6-4.9,0-.2-.3-.7-.6-1.7-.3-1-.5-1.8-.5-2.4v-27.1h52.9c1.9,0,3.9.5,6,1.4,2.1,1,4,2.2,5.7,3.9,1.7,1.6,3.1,3.5,4.2,5.6,1.1,2.1,1.6,4.3,1.6,6.5v4.1Z"/>
  </g>
  <path class="st1" d="M853.1,149.3c6.2,0,11.2,5,11.2,11.2s-5,11.2-11.2,11.2-11.2-5-11.2-11.2,5-11.2,11.2-11.2"/>
  <g>
    <path class="st0" d="M938.1,282.7h5.8v5h-5.8v-5ZM936.6,294.4c0,1.3.2,2.5.6,3.6.4,1.1.9,2.1,1.6,2.9.7.8,1.4,1.5,2.3,2,.9.5,1.8.7,2.8.7v4.6c-1.9,0-3.7-.4-5.4-1.1-1.7-.7-3.1-1.7-4.4-3-1.2-1.2-2.2-2.7-3-4.4-.7-1.7-1.1-3.5-1.1-5.4v-20.6c.9-.5,1.9-.9,3-1.2,1.1-.3,2.3-.5,3.6-.5v22.3ZM915.4,281.4c1.6,0,3,.3,4.5.8,1.4.6,2.6,1.3,3.7,2.3,1,.9,1.9,2,2.4,3.3.6,1.2.9,2.5.8,3.9,0,1.6-.6,2.9-1.6,4-1,1.1-2.2,2-3.8,2.6-1.5.6-3.3,1-5.3,1.1-2,.1-4,0-6.1-.4-.5-1.3-.8-2.6-.8-4v-.7c2.7.5,4.8.7,6.4.5,1.5-.2,2.7-.6,3.5-1.1s1.2-1.1,1.4-1.7c.2-.6.3-1,.3-1.2s0-.5-.1-1c0-.5-.3-1-.7-1.5s-.9-1-1.7-1.3c-.7-.4-1.8-.6-3.1-.6s-2,.2-2.9.7c-.9.5-1.6,1.1-2.2,1.9-.6.8-1.1,1.8-1.4,2.9-.3,1.1-.5,2.4-.5,3.7s.2,2.4.6,3.5c.4,1.1.9,2,1.5,2.9.7.8,1.4,1.5,2.3,1.9.9.5,1.8.7,2.8.7.9,0,1.7,0,2.4-.2.8-.2,1.4-.5,2-.9.7-.4,1.3-.9,1.8-1.4l3.2,3.3c-1.2,1.2-2.7,2.1-4.3,2.8-1.6.7-3.4,1-5.2,1s-3.7-.4-5.4-1.1c-1.7-.7-3.1-1.7-4.4-3-1.2-1.3-2.2-2.7-3-4.4-.7-1.7-1.1-3.5-1.1-5.4s.4-3.7,1.1-5.4c.7-1.7,1.7-3.1,3-4.4,1.3-1.2,2.7-2.2,4.4-3,1.7-.7,3.5-1.1,5.4-1.1M892,293.1c2.2.8,3.8,1.9,5,3.3,1.1,1.4,1.6,3,1.5,4.8,0,1.3-.4,2.5-1.1,3.5-.7,1-1.5,1.8-2.5,2.5-1,.7-2.1,1.1-3.4,1.4-1.3.3-2.6.4-3.9.3-1.5-.1-3-.5-4.4-1.2-1.4-.7-2.7-1.6-3.8-2.6.3-.6.7-1.3,1.1-1.9.4-.6.9-1.2,1.6-1.8,1,1.2,2,2.1,3,2.5,1,.4,1.9.7,2.7.7,1.7.1,2.9-.2,3.7-.8.8-.6,1.2-1.4,1.3-2.4,0-.6,0-1.1-.3-1.6-.3-.4-.7-.8-1.2-1.1-.5-.3-1.2-.6-2-.9-.8-.3-1.7-.6-2.7-1-1.4-.5-2.5-1.1-3.4-1.8-.9-.6-1.6-1.3-2.1-2-.5-.7-.9-1.4-1-2.1-.2-.7-.2-1.4-.2-2.1,0-.9.3-1.7.8-2.6.4-.9,1.1-1.6,1.9-2.3.8-.7,1.8-1.1,2.9-1.5,1.1-.3,2.4-.4,3.9-.3,1.6.2,3.1.6,4.4,1.2,1.3.7,2.5,1.5,3.6,2.5-.3.7-.7,1.3-1.1,1.9-.4.6-.9,1.2-1.5,1.8-1-1.2-2.1-2.1-3.1-2.5-1-.4-1.9-.6-2.7-.7-.5,0-.9,0-1.4.2-.4.1-.8.3-1.1.6-.3.3-.5.6-.7,1-.1.4-.1.8,0,1.2.2.4.4.7.7,1,.3.3.7.5,1.2.8.5.3,1.1.5,1.9.8.7.3,1.6.6,2.7,1M864.8,273h-9.2v-4.4h9.2v4.4ZM854.1,268.6v38c-.9.5-1.9.8-2.9,1.1-1,.3-2.2.4-3.5.4v-35.1h-10.6v-4.4h16.9ZM828.4,270.1c.9-.5,1.9-.9,3-1.2,1-.3,2.2-.4,3.6-.4v38c-.8.4-1.6.7-2.4,1-.9.3-1.8.5-2.8.5h-1.3v-37.9ZM798.4,281.5c1.9,0,3.6.4,5.2,1.1,1.6.7,3,1.7,4.2,3,1.2,1.2,2.1,2.7,2.7,4.4.6,1.7,1,3.5,1,5.4v14c0,1.9-.4,3.7-1.1,5.4-.7,1.7-1.7,3.1-3,4.4-1.2,1.2-2.7,2.2-4.4,3-1.7.7-3.5,1.1-5.4,1.1s-3.2-.3-4.6-.8c-1.4-.5-2.7-1.2-3.9-2.2.2-.7.5-1.4.9-2.1.4-.7.8-1.4,1.4-2.1h0c1.2,1.1,2.3,1.9,3.3,2.2,1.1.3,2,.5,2.9.4,1,0,1.9-.2,2.8-.7.9-.5,1.6-1.1,2.3-2,.7-.8,1.2-1.8,1.6-2.9.4-1.1.6-2.3.6-3.6v-14.2c0-1.3-.2-2.5-.5-3.6-.3-1.1-.8-2.1-1.3-2.9-.6-.8-1.3-1.5-2.1-2-.8-.5-1.7-.7-2.7-.7s-1.9.2-2.7.7c-.8.5-1.5,1.2-2.1,2-.6.9-1,1.8-1.3,3-.3,1.1-.5,2.3-.5,3.6s.2,2.5.5,3.6c.3,1.1.7,2.1,1.3,3,.6.8,1.2,1.5,2.1,2,.8.5,1.7.7,2.7.7s2.1-.3,2.9-1c.8-.7,1.5-1.6,2.1-2.7v7c-.9.4-1.7.7-2.4.9-.7.2-1.6.3-2.7.3-1.9,0-3.7-.4-5.3-1.1-1.6-.7-3-1.7-4.1-3-1.2-1.3-2.1-2.7-2.7-4.4-.7-1.7-1-3.5-1-5.4s.3-3.7,1-5.4c.7-1.7,1.6-3.1,2.7-4.4,1.2-1.2,2.5-2.2,4.1-3,1.6-.7,3.3-1.1,5.3-1.1M768.9,281.4c1.9,0,3.7.4,5.3,1.1,1.6.7,3,1.7,4.2,3,1.2,1.2,2.1,2.7,2.7,4.4.6,1.7,1,3.5,1,5.4v11.3c-.9.5-1.9.9-3,1.2-1.1.3-2.3.5-3.6.5v-13c0-1.3-.2-2.5-.5-3.6-.3-1.1-.7-2.1-1.3-3-.6-.9-1.2-1.5-2-2-.8-.5-1.7-.7-2.7-.7s-1.9.2-2.7.7c-.8.5-1.5,1.2-2.1,2-.6.9-1,1.8-1.3,3-.3,1.1-.5,2.3-.5,3.6v11.3c-.9.5-1.9.9-3,1.2-1.1.3-2.2.5-3.6.5v-13c0-1.9.3-3.7,1-5.4.7-1.7,1.6-3.1,2.7-4.4,1.2-1.2,2.5-2.2,4.1-3,1.6-.7,3.3-1.1,5.3-1.1M745,284.2c.9-.5,1.9-.9,3-1.2,1.1-.3,2.3-.5,3.6-.5v24c-1.6.8-3.3,1.4-5.3,1.6h-1.3v-23.8ZM748.3,278.7c-1,0-1.9-.4-2.6-1.1-.7-.7-1.1-1.6-1.1-2.7s.4-1.9,1.1-2.6c.7-.7,1.6-1.1,2.6-1.1s1.9.3,2.7,1.1c.7.7,1.1,1.6,1.1,2.6s-.4,1.9-1.1,2.7c-.7.7-1.6,1.1-2.7,1.1M735.1,282.7h5.8v5h-5.8v-5ZM733.6,294.4c0,1.3.2,2.5.6,3.6.4,1.1.9,2.1,1.5,2.9.7.8,1.4,1.5,2.3,2,.9.5,1.8.7,2.8.7v4.6c-1.9,0-3.7-.4-5.4-1.1-1.7-.7-3.2-1.7-4.4-3-1.2-1.2-2.2-2.7-3-4.4-.7-1.7-1.1-3.5-1.1-5.4v-20.6c.9-.5,1.9-.9,3-1.2,1.1-.3,2.3-.5,3.6-.5v22.3ZM696.9,270.3c.9-.5,1.9-.9,3-1.2,1-.3,2.2-.4,3.6-.4v37.8c-.9.5-1.9.9-3,1.2-1.1.3-2.3.4-3.6.4v-37.8ZM710,281.4c1.9,0,3.7.4,5.3,1.1,1.6.7,3,1.7,4.2,3,1.2,1.2,2.1,2.7,2.7,4.4.7,1.7,1,3.5,1,5.4v11.3c-.9.5-1.9.9-3,1.2-1.1.3-2.3.4-3.6.4v-12.9c0-1.3-.2-2.5-.5-3.6-.3-1.1-.7-2.1-1.3-2.9-.6-.8-1.2-1.5-2-2-.8-.5-1.7-.7-2.7-.7s-2.1.3-2.9,1c-.8.7-1.5,1.6-2.2,2.7v-7c.9-.4,1.7-.7,2.4-.9.7-.2,1.6-.3,2.6-.3M680.5,281.5c1.9,0,3.6.4,5.2,1.1,1.6.7,3,1.7,4.2,3,1.2,1.2,2.1,2.7,2.7,4.4.7,1.7,1,3.5,1,5.4v14c0,1.9-.4,3.7-1.1,5.4-.7,1.7-1.7,3.1-3,4.4-1.2,1.2-2.7,2.2-4.4,3-1.7.7-3.5,1.1-5.4,1.1s-3.2-.3-4.6-.8c-1.4-.5-2.7-1.2-3.9-2.2.2-.7.5-1.4.9-2.1.4-.7.8-1.4,1.4-2.1h0c1.2,1.1,2.3,1.9,3.3,2.2,1.1.3,2,.5,2.9.4,1,0,1.9-.2,2.8-.7.9-.5,1.6-1.1,2.3-2,.7-.8,1.2-1.8,1.6-2.9.4-1.1.6-2.3.6-3.6v-14.2c0-1.3-.2-2.5-.5-3.6-.3-1.1-.8-2.1-1.3-2.9-.6-.8-1.3-1.5-2.1-2-.8-.5-1.7-.7-2.7-.7s-1.9.2-2.7.7c-.8.5-1.5,1.2-2.1,2-.6.9-1,1.8-1.3,3-.3,1.1-.5,2.3-.5,3.6s.2,2.5.5,3.6c.3,1.1.7,2.1,1.3,3,.6.8,1.2,1.5,2.1,2,.8.5,1.7.7,2.7.7s2.1-.3,2.9-1c.8-.7,1.5-1.6,2.1-2.7v7c-.9.4-1.7.7-2.4.9-.7.2-1.6.3-2.7.3-1.9,0-3.7-.4-5.3-1.1-1.6-.7-3-1.7-4.1-3-1.2-1.3-2.1-2.7-2.7-4.4-.7-1.7-1-3.5-1-5.4s.3-3.7,1-5.4c.7-1.7,1.6-3.1,2.7-4.4s2.5-2.2,4.1-3c1.6-.7,3.3-1.1,5.3-1.1M656.6,284.2c.9-.5,1.9-.9,3-1.2,1.1-.3,2.3-.5,3.6-.5v24c-1.6.8-3.3,1.4-5.3,1.6h-1.3v-23.8ZM659.9,278.7c-1,0-1.9-.4-2.6-1.1-.7-.7-1.1-1.6-1.1-2.7s.4-1.9,1.1-2.6c.7-.7,1.6-1.1,2.6-1.1s1.9.3,2.7,1.1c.7.7,1.1,1.6,1.1,2.6s-.4,1.9-1.1,2.7c-.7.7-1.6,1.1-2.7,1.1M645.2,294.4c0,1.3.2,2.5.6,3.6.4,1.1.9,2.1,1.6,2.9.7.8,1.4,1.5,2.3,2,.9.5,1.8.7,2.8.7v4.5c-1.9,0-3.7-.4-5.4-1.1-1.7-.7-3.1-1.7-4.4-3-1.3-1.2-2.2-2.7-3-4.4-.7-1.7-1.1-3.5-1.1-5.4v-24c.9-.5,1.9-.9,3-1.2,1.1-.3,2.3-.4,3.6-.4v25.6ZM614.5,294.4c0,1.3.2,2.5.6,3.6.4,1.1.9,2.1,1.5,2.9.7.8,1.4,1.5,2.3,2,.9.5,1.8.7,2.8.7v4.5c-1.9,0-3.7-.4-5.4-1.1-1.7-.7-3.1-1.7-4.4-3-1.2-1.2-2.2-2.7-3-4.4-.7-1.7-1.1-3.5-1.1-5.4v-24c.9-.5,1.9-.9,3-1.2,1.1-.3,2.3-.4,3.6-.4v25.6ZM590.4,281.4c1.9,0,3.7.4,5.4,1.1,1.7.7,3.1,1.7,4.4,3,1.2,1.2,2.2,2.7,3,4.4.7,1.7,1.1,3.5,1.1,5.4v12.9c-1.3,0-2.5-.1-3.6-.4-1.1-.3-2.1-.7-3-1.2v-11.3c0-.7,0-1.3-.1-1.9,0-.6-.2-1.2-.4-1.8-.6-1.7-1.5-3-2.6-4.1-1.2-1-2.5-1.6-4-1.6s-1.9.2-2.8.7-1.7,1.2-2.3,2c-.7.8-1.2,1.8-1.6,2.9-.4,1.1-.6,2.3-.6,3.6s.2,2.5.6,3.6c.4,1.1.9,2.1,1.6,2.9.7.8,1.4,1.5,2.3,2,.9.5,1.8.7,2.8.7s2.2-.3,3.2-1c1-.7,1.8-1.6,2.5-2.7v7c-.9.4-1.8.7-2.7.9-1,.2-2,.3-3,.3-1.9,0-3.7-.4-5.4-1.1-1.7-.7-3.1-1.7-4.4-3-1.2-1.3-2.2-2.7-3-4.4-.7-1.7-1.1-3.5-1.1-5.4s.4-3.7,1.1-5.4c.7-1.7,1.7-3.1,3-4.4,1.2-1.2,2.7-2.2,4.4-3,1.7-.7,3.5-1.1,5.4-1.1M567.3,283.8c.9-.5,1.9-.9,3-1.2,1.1-.3,2.3-.5,3.6-.5v13c0,1.9-.3,3.7-1,5.4-.7,1.7-1.6,3.1-2.7,4.4-1.2,1.2-2.5,2.2-4.2,3-1.6.7-3.4,1.1-5.2,1.1s-3.7-.4-5.3-1.1c-1.6-.7-3-1.7-4.2-3-1.2-1.2-2.1-2.7-2.7-4.4-.7-1.7-1-3.5-1-5.4v-11.3c.9-.5,1.9-.9,3-1.2,1.1-.3,2.3-.5,3.6-.5v13c0,1.3.2,2.5.5,3.6.3,1.1.7,2.1,1.3,3,.6.8,1.2,1.5,2,2,.8.5,1.7.7,2.7.7s1.9-.2,2.7-.7c.8-.5,1.5-1.2,2.1-2,.6-.8,1-1.8,1.3-3,.3-1.1.5-2.3.5-3.6v-11.3ZM537.8,293.1c2.2.8,3.8,1.9,5,3.3,1.1,1.4,1.6,3,1.5,4.8,0,1.3-.4,2.5-1.1,3.5-.7,1-1.5,1.8-2.5,2.5-1,.7-2.1,1.1-3.4,1.4-1.3.3-2.6.4-3.9.3-1.5-.1-2.9-.5-4.4-1.2-1.4-.7-2.7-1.6-3.8-2.6.3-.6.7-1.3,1.1-1.9.4-.6.9-1.2,1.5-1.8,1,1.2,2,2.1,3,2.5,1,.4,1.9.7,2.7.7,1.7.1,2.9-.2,3.7-.8.8-.6,1.2-1.4,1.3-2.4,0-.6,0-1.1-.3-1.6-.3-.4-.7-.8-1.2-1.1-.5-.3-1.2-.6-2-.9-.8-.3-1.7-.6-2.7-1-1.4-.5-2.5-1.1-3.4-1.8-.9-.6-1.6-1.3-2.1-2-.5-.7-.9-1.4-1-2.1-.2-.7-.2-1.4-.2-2.1,0-.9.3-1.7.8-2.6.5-.9,1.1-1.6,1.9-2.3.8-.7,1.8-1.1,2.9-1.5,1.1-.3,2.4-.4,3.9-.3,1.6.2,3.1.6,4.4,1.2,1.3.7,2.5,1.5,3.6,2.5-.3.7-.7,1.3-1.1,1.9-.4.6-.9,1.2-1.6,1.8-1-1.2-2.1-2.1-3.1-2.5-1-.4-1.9-.6-2.7-.7-.5,0-.9,0-1.4.2-.4.1-.8.3-1.1.6-.3.3-.5.6-.7,1-.1.4-.1.8,0,1.2.1.4.4.7.7,1,.3.3.7.5,1.2.8.5.3,1.1.5,1.8.8.7.3,1.6.6,2.7,1M514.4,284.2c.9-.5,1.9-.9,3-1.2,1.1-.3,2.3-.5,3.6-.5v24c-1.6.8-3.3,1.4-5.3,1.6h-1.3v-23.8ZM517.7,278.7c-1,0-1.9-.4-2.6-1.1-.7-.7-1.1-1.6-1.1-2.7s.3-1.9,1.1-2.6c.7-.7,1.6-1.1,2.6-1.1s1.9.3,2.7,1.1c.7.7,1.1,1.6,1.1,2.6s-.4,1.9-1.1,2.7c-.7.7-1.6,1.1-2.7,1.1M504.8,282.1c1.2,0,2.2.1,3.2.4,1,.3,1.9.6,2.7,1l-11.4,25.4h-3.5l-11.5-25.4c.9-.4,1.8-.7,2.8-1,1-.3,2.1-.4,3.2-.4l7.2,17.4,7.2-17.4ZM455.1,304.5c1,0,1.9-.2,2.8-.7.9-.5,1.7-1.1,2.3-2,.7-.8,1.2-1.8,1.5-3,.4-1.1.6-2.3.6-3.6s-.2-2.5-.6-3.6c-.4-1.1-.9-2.1-1.5-3-.7-.9-1.4-1.5-2.3-2-.9-.5-1.8-.7-2.8-.7s-2,.2-2.8.7c-.9.5-1.6,1.2-2.3,2-.7.9-1.2,1.8-1.6,3-.4,1.1-.6,2.3-.6,3.6s.2,2.5.6,3.6c.4,1.1.9,2.1,1.6,3,.7.8,1.4,1.5,2.3,2,.9.5,1.8.7,2.8.7M455.1,281.4c1.9,0,3.7.4,5.3,1.1,1.7.7,3.2,1.7,4.4,3,1.2,1.2,2.2,2.7,3,4.4.7,1.7,1.1,3.5,1.1,5.4s-.4,3.7-1.1,5.4c-.7,1.7-1.7,3.1-3,4.4-1.2,1.2-2.7,2.2-4.4,3-1.7.7-3.5,1.1-5.3,1.1s-3.7-.4-5.4-1.1c-1.7-.7-3.1-1.7-4.4-3-1.2-1.2-2.2-2.7-3-4.4-.7-1.7-1.1-3.5-1.1-5.4s.4-3.7,1.1-5.4c.7-1.7,1.7-3.1,3-4.4s2.7-2.2,4.4-3c1.7-.7,3.5-1.1,5.4-1.1M430.7,284.2c.9-.5,1.9-.9,3-1.2,1.1-.3,2.3-.5,3.6-.5v24c-1.6.8-3.3,1.4-5.3,1.6h-1.3v-23.8ZM434,278.7c-1,0-1.9-.4-2.6-1.1-.7-.7-1.1-1.6-1.1-2.7s.4-1.9,1.1-2.6c.7-.7,1.6-1.1,2.6-1.1s1.9.3,2.7,1.1c.7.7,1.1,1.6,1.1,2.6s-.4,1.9-1.1,2.7c-.7.7-1.6,1.1-2.7,1.1M426.5,295.2c0,1.9-.4,3.7-1.1,5.4-.7,1.7-1.7,3.1-3,4.4-1.2,1.2-2.7,2.2-4.4,3-1.7.7-3.5,1.1-5.4,1.1s-3.7-.4-5.4-1.1c-1.7-.7-3.1-1.7-4.4-3-1.2-1.3-2.2-2.7-3-4.4-.7-1.7-1.1-3.5-1.1-5.4s.4-3.7,1.1-5.4c.7-1.7,1.7-3.1,3-4.4,1.2-1.2,2.7-2.2,4.4-3,1.7-.7,3.5-1.1,5.4-1.1s4,.4,5.8,1.2v7c-.7-1.1-1.5-2-2.5-2.7-1-.7-2.1-1-3.3-1s-1.9.2-2.8.7-1.6,1.2-2.3,2c-.7.8-1.2,1.8-1.5,2.9-.4,1.1-.6,2.3-.6,3.6s.2,2.5.6,3.6c.4,1.1.9,2.1,1.5,3,.7.8,1.4,1.5,2.3,2,.9.5,1.8.7,2.8.7s1.9-.2,2.8-.7c.9-.5,1.6-1.1,2.3-2,.7-.8,1.2-1.8,1.6-2.9.4-1.1.6-2.3.6-3.6v-25c.9-.5,1.9-.9,3-1.2,1.1-.3,2.3-.4,3.6-.4v26.5ZM389,283.8c.9-.5,1.9-.9,3-1.2,1.1-.3,2.2-.5,3.6-.5v13c0,1.9-.3,3.7-1,5.4-.7,1.7-1.6,3.1-2.7,4.4-1.2,1.2-2.5,2.2-4.2,3-1.6.7-3.4,1.1-5.2,1.1s-3.7-.4-5.3-1.1c-1.6-.7-3-1.7-4.2-3-1.2-1.2-2.1-2.7-2.7-4.4-.7-1.7-1-3.5-1-5.4v-11.3c.9-.5,1.9-.9,3-1.2,1.1-.3,2.3-.5,3.6-.5v13c0,1.3.2,2.5.5,3.6.3,1.1.7,2.1,1.3,3,.6.8,1.2,1.5,2,2,.8.5,1.7.7,2.7.7s1.9-.2,2.7-.7c.8-.5,1.5-1.2,2.1-2,.6-.8,1-1.8,1.3-3,.3-1.1.5-2.3.5-3.6v-11.3ZM352.3,281.4c1.9,0,3.7.4,5.4,1.1,1.7.7,3.1,1.7,4.4,3,1.2,1.2,2.2,2.7,3,4.4.7,1.7,1.1,3.5,1.1,5.4v12.9c-1.3,0-2.5-.1-3.6-.4-1.1-.3-2.1-.7-3-1.2v-11.3c0-.7,0-1.3-.1-1.9,0-.6-.2-1.2-.4-1.8-.6-1.7-1.5-3-2.6-4.1-1.2-1-2.5-1.6-4-1.6s-1.9.2-2.8.7c-.9.5-1.7,1.2-2.3,2-.7.8-1.2,1.8-1.6,2.9-.4,1.1-.6,2.3-.6,3.6s.2,2.5.6,3.6c.4,1.1.9,2.1,1.6,2.9.7.8,1.4,1.5,2.3,2,.9.5,1.8.7,2.8.7s2.2-.3,3.2-1c1-.7,1.8-1.6,2.5-2.7v7c-.9.4-1.8.7-2.7.9-1,.2-2,.3-3,.3-1.9,0-3.7-.4-5.4-1.1-1.7-.7-3.1-1.7-4.4-3s-2.2-2.7-3-4.4c-.7-1.7-1.1-3.5-1.1-5.4s.4-3.7,1.1-5.4c.7-1.7,1.7-3.1,3-4.4,1.2-1.2,2.7-2.2,4.4-3,1.7-.7,3.5-1.1,5.4-1.1"/>
    <path class="st0" d="M1095.4,281.4c1.9,0,3.7.4,5.3,1.1,1.6.7,3,1.7,4.2,3,1.2,1.2,2.1,2.7,2.7,4.4.7,1.7,1,3.5,1,5.4v11.3c-.9.5-1.9.9-3,1.2-1.1.3-2.3.5-3.6.5v-13c0-1.3-.2-2.5-.5-3.6-.3-1.1-.7-2.1-1.3-3-.6-.9-1.2-1.5-2-2-.8-.5-1.7-.7-2.7-.7s-1.9.2-2.7.7c-.8.5-1.5,1.2-2.1,2-.6.9-1,1.8-1.3,3-.3,1.1-.5,2.3-.5,3.6v11.3c-.9.5-1.9.9-3,1.2-1.1.3-2.2.5-3.6.5v-13c0-1.9.3-3.7,1-5.4.7-1.7,1.6-3.1,2.7-4.4,1.2-1.3,2.5-2.2,4.1-3,1.6-.7,3.3-1.1,5.3-1.1M1065.9,281.5c1.9,0,3.6.4,5.2,1.1,1.6.7,3,1.7,4.2,3,1.2,1.2,2.1,2.7,2.7,4.4.7,1.7,1,3.5,1,5.4v14c0,1.9-.4,3.7-1.1,5.4-.7,1.7-1.7,3.1-3,4.4-1.3,1.2-2.7,2.2-4.4,3-1.7.7-3.5,1.1-5.4,1.1s-3.2-.3-4.6-.8c-1.4-.5-2.7-1.2-3.9-2.2.2-.7.5-1.4.9-2.1.4-.7.8-1.4,1.4-2.1h0c1.2,1.1,2.3,1.8,3.3,2.2,1.1.3,2,.5,2.9.4,1,0,1.9-.2,2.8-.7s1.6-1.1,2.3-2c.7-.8,1.2-1.8,1.6-2.9.4-1.1.6-2.3.6-3.6v-14.2c0-1.3-.2-2.5-.5-3.6-.3-1.1-.8-2.1-1.3-2.9-.6-.8-1.3-1.5-2.1-2-.8-.5-1.7-.7-2.7-.7s-1.9.2-2.7.7c-.8.5-1.5,1.2-2.1,2-.6.8-1,1.8-1.3,3-.3,1.1-.5,2.3-.5,3.6s.2,2.5.5,3.6c.3,1.1.7,2.1,1.3,3,.6.8,1.2,1.5,2.1,2,.8.5,1.7.7,2.7.7s2.1-.3,2.9-1c.8-.7,1.5-1.6,2.1-2.7v7c-.9.4-1.7.7-2.4.9-.7.2-1.6.3-2.7.3-1.9,0-3.7-.4-5.3-1.1-1.6-.7-3-1.7-4.1-3-1.2-1.2-2.1-2.7-2.7-4.4-.7-1.7-1-3.5-1-5.4s.3-3.7,1-5.4c.7-1.7,1.6-3.2,2.7-4.4,1.2-1.2,2.5-2.2,4.1-3,1.6-.7,3.3-1.1,5.3-1.1M1042,284.2c.9-.5,1.9-.9,3-1.2,1.1-.3,2.3-.5,3.6-.5v24c-1.6.8-3.3,1.4-5.3,1.6h-1.3v-23.9ZM1045.3,278.7c-1,0-1.9-.4-2.6-1.1-.7-.7-1.1-1.6-1.1-2.7s.3-1.9,1.1-2.6c.7-.7,1.6-1.1,2.6-1.1s1.9.3,2.7,1.1c.7.7,1.1,1.6,1.1,2.6s-.4,1.9-1.1,2.7-1.6,1.1-2.7,1.1M1031.3,293.1c2.2.8,3.8,1.9,5,3.3,1.1,1.4,1.6,3,1.5,4.8,0,1.3-.4,2.5-1.1,3.5-.7,1-1.5,1.8-2.5,2.5-1,.7-2.1,1.1-3.4,1.4-1.3.3-2.6.4-3.9.3-1.5-.1-3-.5-4.4-1.2-1.4-.7-2.7-1.6-3.7-2.6.3-.7.7-1.3,1.1-1.9s.9-1.2,1.6-1.8c1,1.2,2,2.1,3,2.5,1,.4,1.9.7,2.7.7,1.7.1,2.9-.2,3.7-.8.8-.6,1.2-1.4,1.3-2.4,0-.6,0-1.1-.4-1.6-.3-.4-.7-.8-1.2-1.1-.5-.3-1.2-.6-2-.9-.8-.3-1.7-.6-2.7-1-1.4-.5-2.5-1.1-3.4-1.8s-1.6-1.3-2.1-2c-.5-.7-.9-1.4-1-2.1-.2-.7-.2-1.4-.2-2.1,0-.9.3-1.7.8-2.6.5-.9,1.1-1.6,1.9-2.3.8-.7,1.8-1.1,2.9-1.5,1.1-.3,2.4-.4,3.9-.3,1.6.2,3.1.6,4.4,1.2,1.3.7,2.5,1.5,3.6,2.5-.3.7-.7,1.3-1.1,1.9-.4.6-.9,1.2-1.6,1.8-1-1.2-2.1-2.1-3.1-2.5-1-.4-1.9-.6-2.7-.7-.5,0-.9,0-1.4.2-.4.1-.8.3-1.1.6-.3.3-.5.6-.7,1-.1.4-.1.8,0,1.2.2.4.4.7.7,1,.3.3.7.5,1.2.8.5.3,1.1.5,1.8.8.7.3,1.6.6,2.7,1M1004.6,281.4c1.6,0,3,.3,4.5.8,1.4.6,2.6,1.3,3.7,2.3,1,.9,1.8,2,2.4,3.3.6,1.2.9,2.5.8,3.9,0,1.6-.6,2.9-1.6,4-1,1.1-2.2,2-3.8,2.6-1.5.6-3.3,1-5.3,1.1-2,.1-4,0-6.1-.4-.5-1.3-.8-2.6-.8-4v-.7c2.7.5,4.8.7,6.4.5,1.5-.2,2.7-.6,3.4-1.1.8-.5,1.2-1.1,1.4-1.7.2-.6.3-1,.3-1.2s0-.5-.1-1c0-.5-.3-1-.7-1.5-.4-.5-.9-.9-1.7-1.3-.7-.4-1.8-.6-3.1-.6s-2,.2-2.9.7c-.9.5-1.6,1.1-2.2,1.9-.6.8-1.1,1.8-1.4,2.9-.3,1.1-.5,2.4-.5,3.7s.2,2.4.6,3.5c.4,1.1.9,2,1.5,2.9.7.8,1.4,1.5,2.3,1.9.9.5,1.8.7,2.8.7.9,0,1.7,0,2.4-.2.8-.2,1.4-.5,2-.9.7-.4,1.3-.9,1.8-1.4l3.2,3.3c-1.2,1.2-2.7,2.1-4.3,2.8-1.6.7-3.4,1-5.2,1s-3.7-.4-5.4-1.1c-1.7-.7-3.1-1.7-4.4-3-1.2-1.2-2.2-2.7-3-4.4-.7-1.7-1.1-3.5-1.1-5.4s.4-3.7,1.1-5.4c.7-1.7,1.7-3.1,3-4.4,1.3-1.3,2.7-2.2,4.4-3,1.7-.7,3.5-1.1,5.4-1.1M987.8,295.2c0,1.9-.4,3.7-1.1,5.4-.7,1.7-1.7,3.1-3,4.4-1.2,1.2-2.7,2.2-4.4,3-1.7.7-3.5,1.1-5.4,1.1s-3.7-.4-5.4-1.1c-1.7-.7-3.1-1.7-4.4-3-1.3-1.2-2.2-2.7-3-4.4-.7-1.7-1.1-3.5-1.1-5.4s.4-3.7,1.1-5.4c.7-1.7,1.7-3.1,3-4.4,1.2-1.2,2.7-2.2,4.4-3,1.7-.7,3.5-1.1,5.4-1.1s4,.4,5.8,1.2v7c-.7-1.1-1.5-2-2.5-2.7-1-.7-2.1-1-3.3-1s-1.9.2-2.8.7c-.9.5-1.6,1.1-2.3,2-.7.8-1.2,1.8-1.5,2.9-.4,1.1-.6,2.3-.6,3.6s.2,2.5.6,3.6c.4,1.1.9,2.1,1.5,3,.7.8,1.4,1.5,2.3,2s1.8.7,2.8.7,1.9-.2,2.8-.7c.9-.5,1.6-1.2,2.3-2s1.2-1.8,1.6-2.9c.4-1.1.6-2.3.6-3.6v-25c.9-.5,1.9-.9,3-1.2,1.1-.3,2.3-.4,3.6-.4v26.5Z"/>
  </g>
  <path class="st1" d="M294.1,182.3c-78.6,40.2-185.9,106.9-241.2,161.9,50.4-62.9,144.9-136.6,222.8-185.4l18.4-.2v23.7Z"/>
</svg>