<?xml version="1.0" encoding="UTF-8"?>
<svg id="Layer_1" xmlns="http://www.w3.org/2000/svg" version="1.1" viewBox="0 0 453.5 155.9">
  <!-- Generator: Adobe Illustrator 30.5.1, SVG Export Plug-In . SVG Version: 2.1.4 Build 3)  -->
  <defs>
    <style>
      .st0, .st1 {
        fill: #f58220;
      }

      .st2, .st1 {
        fill-rule: evenodd;
      }

      .st2, .st3 {
        fill: #fff;
      }

      .st4 {
        fill: #ffffff;
      }
    </style>
  </defs>
  <path class="st0" d="M133.9,71v-35c0-.9-.2-1.6-.7-2.4-.5-.7-1-1.4-1.7-2-.7-.6-1.4-1-2.2-1.3-.8-.3-1.5-.5-2.2-.5h-35.3v35.2c0,.8.2,1.6.7,2.3.5.7,1,1.4,1.7,1.9.7.6,1.4,1,2.2,1.3.8.3,1.5.5,2,.5h35.4Z"/>
  <path class="st2" d="M220,34v-6.1c0-.6-.2-1.1-.4-1.7-.3-.6-.7-1.1-1.2-1.5-.5-.4-1.1-.8-1.8-1-.5-.2-1-.4-1.6-.4h-33v10.7h38.1ZM140.5,61.7V28.3c0-.6-.2-1.1-.4-1.6-.4-.6-.8-1.1-1.3-1.6-.5-.4-1.1-.8-1.7-1.1-.5-.2-1-.4-1.6-.4h-33.7v33.6c0,.5.2,1,.4,1.4.4.6.8,1.1,1.4,1.5.5.4,1.1.8,1.7,1.1.4.2,1,.4,1.4.4h33.8ZM261.8,23.5v10.6h35v16.9h-35v6.1c0,.5.2,1,.4,1.5.3.6.8,1.1,1.3,1.5.5.4,1.1.8,1.7,1,.5.2,1.1.4,1.7.4h33.9v-6.9h17.2v23.7h-55.5c-.7,0-1.5-.1-2.1-.3-.7-.2-1.4-.4-2-.6-.6-.2-1.2-.4-1.8-.7-.4-.2-.8-.3-1.2-.6-1.6-.8-3.1-1.9-4.4-3.2-1.3-1.3-2.4-2.7-3.3-4.2-.9-1.4-1.6-2.9-2.1-4.5-.5-1.4-.8-2.9-.8-4.5V6.5h54.4c2.3,0,4.5.6,6.6,1.5,2.2,1,4.3,2.3,6.1,3.9,1.8,1.6,3.4,3.5,4.6,5.7,1.2,2.1,1.8,4.5,1.8,6.9v5.8h-17.2v-1.6c0-.2,0-.4,0-.7,0-.1,0-.3,0-.4h0c0,0,0-.2,0-.2-.1-.5-.4-1-.7-1.5-.4-.6-.8-1.1-1.3-1.5-.5-.3-1-.6-1.5-.8-.3-.1-.9-.3-1.3-.3h-34ZM206.6,51.1l34,27.4h-26.6l-32.2-25.7v26.1l-2-.4c-1.4-.3-2.7-.8-3.9-1.5-1.4-.7-2.7-1.6-3.9-2.5-1.1-.9-2.1-2-2.9-3.1-.9-1.2-1.6-2.4-2.2-3.7-.6-1.2-1.1-2.5-1.4-3.8-.3-1.2-.5-2.4-.5-3.6V6.2h53.3c2.3,0,4.5.6,6.5,1.5,2.2,1,4.2,2.3,6,3.9,1.8,1.6,3.3,3.5,4.4,5.7,1.2,2.2,1.8,4.5,1.8,6.9v26.7h-30.3ZM95.2,76.9c-1.6-.8-3-1.8-4.3-3.1-1.3-1.3-2.4-2.7-3.4-4.3-.9-1.5-1.6-3-2.1-4.6-.5-1.4-.8-3-.8-4.5V6.6h53.9c2.4,0,4.7.6,6.9,1.6,2.2,1.1,4.2,2.5,6,4.2,1.7,1.7,3.2,3.7,4.3,5.9,1.1,2.2,1.7,4.5,1.7,7v53.3h-58c-.4,0-.8-.2-1.2-.3-.4-.1-.8-.3-1.2-.5-.4-.2-.8-.3-1.2-.5-.3-.1-.5-.3-.8-.4M22.9,24.5v33c0,.2.2.6.3.8h0c0,.1,0,.2,0,.2.1.4.3.8.6,1.2.4.5.8.8,1.3,1.2.5.3.9.6,1.5.8.3.1.7.2,1.1.2l1.8-.2v.2h32.6v-13.1h17.3v29.9H20.8c-.3,0-.7-.1-1.1-.2-.4-.1-.8-.3-1.2-.4-.4-.2-.9-.3-1.3-.5-.3-.1-.7-.3-.9-.5-.2-.2-.4-.3-.7-.4-.5-.2-.9-.5-1.3-.8-2.3-1.7-4.4-3.7-5.8-6.2-1.2-2.1-2.1-4.4-2.4-6.7,0-.3-.1-.7-.2-1,0-.3,0-.6,0-.9V7.7h54.3c.3,0,.7,0,1,.2,1.1,0,2.2.3,3.2.6.5.1,1,.3,1.4.4.6.2,1.1.4,1.6.6,1.3.6,2.6,1.4,3.8,2.3,1.4,1,2.6,2.2,3.7,3.6.3.5.7.9,1,1.4.2.3.5.7.7,1h.1c0,.1,0,.3,0,.3.2.3.3.7.5,1,.2.4.4.8.5,1.2v.2c0,0,.1.1.1.2h0c0,.1,0,.3,0,.3.1.4.2.8.3,1.2,0,.3.2.7.3,1h0c0,0,0,.1,0,.1.1.5.2,1.1.3,1.6,0,.4.1.8.1,1.2v12.1h-17.3v-9.3c0-.1,0-.2,0-.4,0-.1,0-.2,0-.3-.2-.5-.5-1-.8-1.5-.3-.5-.8-.9-1.3-1.2-.2-.1-.4-.3-.6-.4-.2-.1-.5-.2-.8-.3-.3-.1-.6-.2-.9-.2-.2,0-.4-.1-.5-.1H22.9Z"/>
  <path class="st4" d="M316.4,28.7h-14c0-.2,0-.5,0-.8,0-.3,0-.6-.2-.9-.2-.6-.5-1.2-.9-1.9-.4-.7-1-1.3-1.8-1.9-.6-.4-1.3-.8-2-1-.7-.2-1.3-.4-1.8-.4h-35.6v13.8h35v13.7h-35v7.7c0,.8.2,1.6.6,2.3.4.7,1,1.4,1.6,2,.6.6,1.3,1,2.1,1.3.8.3,1.5.5,2.3.5h35.5v-6.9h14v20.5h-53.9c-.5,0-1.1,0-1.7-.3-.7-.2-1.3-.4-2-.6-.6-.2-1.2-.4-1.7-.6-.5-.2-.8-.4-1-.5-1.5-.7-2.8-1.7-4.1-3-1.2-1.2-2.3-2.5-3.1-3.9-.9-1.4-1.5-2.8-2-4.2-.5-1.4-.7-2.7-.7-4V8.1h52.8c1.9,0,3.9.5,5.9,1.4,2.1.9,3.9,2.1,5.7,3.6,1.7,1.5,3.1,3.3,4.2,5.2s1.6,4,1.6,6.1v4.2ZM221.6,35.6v-7.7c0-.9-.2-1.7-.6-2.4-.4-.8-1-1.4-1.6-2-.7-.5-1.4-1-2.2-1.3-.8-.3-1.5-.5-2.2-.5h-34.6v13.9h41.3ZM235.3,49.5h-33.2l34,27.4h-21.5l-34.3-27.4v27.4c-1.2-.3-2.4-.7-3.6-1.3-1.2-.6-2.4-1.4-3.6-2.4-1-.8-1.8-1.7-2.7-2.8-.8-1.1-1.5-2.2-2.1-3.4-.6-1.2-1-2.4-1.3-3.6-.3-1.2-.5-2.2-.5-3.2V7.8h51.7c1.9,0,3.8.5,5.8,1.4s3.9,2.2,5.5,3.7c1.7,1.5,3,3.3,4.1,5.3,1.1,2,1.6,4.1,1.6,6.2v25.1ZM142.1,63.3V28.3c0-.9-.2-1.6-.7-2.4-.5-.7-1-1.4-1.7-2-.7-.6-1.4-1-2.2-1.3-.8-.3-1.5-.5-2.2-.5h-35.3v35.2c0,.8.2,1.6.7,2.3.5.7,1,1.4,1.7,1.9.7.6,1.4,1,2.2,1.3.8.3,1.4.5,2,.5h35.4ZM155.9,77h-56.4c0,0-.3,0-.6-.2-.4-.1-.8-.3-1.2-.4-.4-.2-.8-.3-1.1-.5-.3-.2-.5-.3-.5-.3-1.5-.7-2.8-1.6-4.1-2.9-1.2-1.2-2.3-2.5-3.1-4-.9-1.4-1.5-2.8-2-4.3-.5-1.4-.7-2.8-.7-4V8.2h52.3c2.1,0,4.2.5,6.2,1.5s3.9,2.3,5.5,3.9c1.6,1.6,3,3.4,4,5.5,1,2.1,1.6,4.1,1.6,6.3v51.7ZM77.6,36.7h-14v-7.7c0,0,0-.2,0-.5,0-.3,0-.5-.2-.8-.3-.6-.6-1.2-.9-1.7-.3-.6-.9-1.1-1.6-1.6-.3-.2-.6-.4-.9-.6-.3-.2-.6-.3-1-.4-.3-.1-.6-.2-1.1-.3-.5-.1-.8-.2-.9-.2H21.3v34.8c0,.2.1.6.4,1.2.2.6.5,1.2.9,1.8.5.6,1,1.1,1.6,1.5.6.4,1.2.7,1.9,1,.6.2,1.2.3,1.8.2h0c0,0,.2,0,.2,0h35.6v-13.1h14v26.7H20.8c0,0-.3,0-.6-.2-.3-.1-.7-.2-1.2-.4-.4-.2-.8-.3-1.2-.5-.3-.2-.5-.3-.6-.3-.3-.2-.6-.4-1-.6-.4-.2-.7-.4-1-.7-2.3-1.6-4.1-3.6-5.3-5.7-1.2-2.2-2-4.3-2.2-6.2,0-.3-.1-.6-.2-1,0-.4,0-.6,0-.7V9.3h52.7c.2,0,.4,0,.7.2,1.2.1,2.2.3,3,.6.4.1.9.2,1.4.4.5.2,1,.3,1.4.6,1,.4,2.2,1.1,3.5,2.1,1.3,1,2.4,2.1,3.4,3.3.3.4.6.9.9,1.3.3.5.6.8.8,1.2.2.3.3.7.5,1,.2.4.3.7.4,1,0,.1,0,.2,0,.3,0,0,.1.2.2.3.1.4.2.8.3,1.2.1.4.2.8.3,1.1.1.4.2.9.3,1.5,0,.6.1.9.1,1v10.5Z"/>
  <g>
    <path class="st3" d="M66.1,124.4v-22.7c.1-.4,0-.8-.3-1.1-.3-.3-.6-.6-1-.9-.4-.3-.8-.5-1.2-.6-.5-.1-.9-.2-1.3-.2h-17.9c0,0-.1,25-.1,25l21.8.4ZM73.5,130.4h-29.8c0-.1.2,19.4.2,19.4-.6,0-1.3-.3-2-.5-.7-.3-1.4-.6-2.1-1.1-1.1-.7-2.1-1.7-2.8-2.8-.7-1.2-1.1-2.2-1.1-3.1l.3-49.7h27.9c0,.1.5.1.5.1.3,0,.5,0,.8,0,.3,0,.5,0,.7.1l1.8.5c.6.2,1.2.4,1.8.8.6.4,1.2.8,1.7,1.2.5.5,1,.9,1.4,1.4.4.5.7,1,.8,1.4,0,.2.2.5.3.8.1.3.2.5.2.6l-.7,30.8Z"/>
    <path class="st3" d="M115,105.7h-7.1v-1.4c0-.5-.1-.9-.3-1.3-.2-.4-.5-.8-.8-1.1-.3-.3-.7-.6-1.1-.7-.4-.2-.8-.3-1.1-.3h-17.9v30.6c-.6,0-1.2-.3-1.8-.7-.7-.4-1.3-.8-1.9-1.3-.5-.4-1-1-1.4-1.6-.4-.6-.7-1.2-1-1.9-.3-.7-.5-1.3-.7-2-.2-.7-.2-1.2-.2-1.8v-29.1h26.6c1,0,2,.3,3,.8,1,.5,2,1.2,2.9,2.1.9.9,1.6,1.8,2.1,2.9.6,1.1.8,2.3.8,3.4v3.4Z"/>
    <path class="st3" d="M149.5,123.7v-19.4c0-.5-.1-.9-.4-1.3-.2-.4-.5-.8-.9-1.1-.4-.3-.7-.5-1.2-.7-.4-.2-.8-.3-1.2-.3h-18.8v19.5c0,.4.1.9.4,1.2.3.4.6.7.9,1,.4.3.7.5,1.1.7.4.2.8.3,1.1.3h18.9ZM157,131.3h-30.1s-.1,0-.3-.1c-.2,0-.4-.2-.6-.3-.2,0-.4-.2-.6-.3-.2,0-.3-.1-.3-.1-.8-.4-1.5-.9-2.1-1.6-.6-.7-1.2-1.4-1.6-2.2-.5-.8-.8-1.6-1.1-2.4-.3-.8-.4-1.5-.4-2.2v-28.9h27.9c1.1,0,2.2.3,3.3.8,1.1.6,2.1,1.3,3,2.2.9.9,1.6,1.9,2.1,3,.6,1.1.8,2.3.8,3.5v28.5Z"/>
    <path class="st3" d="M192.4,123.4v-22.5h-22.7v16.7c0,.8.2,1.5.4,2.2.2.7.5,1.3.9,1.8.4.5.7,1,1.2,1.3.4.3.8.5,1.2.5h19.1ZM199.6,130.5h-28.9c-.2,0-.4,0-.7-.2-.3-.1-.6-.3-.9-.4-.3-.2-.6-.3-.8-.5s-.4-.3-.5-.4c-.7-.4-1.3-.8-2-1.2-.7-.4-1.2-.9-1.8-1.5-.5-.6-1-1.2-1.3-2-.3-.8-.5-1.6-.5-2.7v-28.5c0,0,30.1,0,30.1,0l-.2-15.9c.8.4,1.5.9,2.1,1.4.5.4,1,.9,1.5,1.6.5.7,1,1.5,1.4,2.4.4.9.8,1.8,1.2,2.7.3.9.6,1.8.7,2.5,0,.4.2.7.2,1.1,0,.4.1.7.2,1.1,0,0,0,.3,0,.5,0,.3,0,.6,0,.9,0,.3,0,.6,0,.9,0,.3,0,.4,0,.4v37.6Z"/>
    <path class="st3" d="M242,130.4h-28.6c-.2,0-.5,0-.9-.1-.4-.1-.7-.2-1-.3-.3-.1-.6-.2-.9-.4-.3-.1-.5-.2-.5-.2-.8-.4-1.4-.9-2.1-1.5-.6-.6-1.2-1.3-1.7-2.1-.5-.7-.8-1.5-1.1-2.3-.3-.8-.4-1.5-.4-2.1v-27.1h7.4v25.6c0,.4.1.9.4,1.3.2.4.5.7.9,1,.4.3.7.5,1.2.7.4.2.8.3,1.2.3h18.8v-29c.6,0,1.3.3,2,.7s1.4.9,2.1,1.5c.7.6,1.3,1.2,1.8,1.9.5.7.9,1.4,1,2.1,0,.2.1.4.2.6,0,.2.1.5.1.7,0,.1,0,.3.1.5,0,.2,0,.4,0,.4v27.8Z"/>
    <path class="st3" d="M283.8,108.5h-7.3v-4.2c0-.2,0-.5-.2-.8,0-.3-.2-.6-.4-1-.2-.3-.5-.6-.9-.9-.1,0-.3-.2-.4-.3-.2-.1-.3-.2-.4-.3-.2,0-.4-.1-.7-.2-.2,0-.4,0-.4,0h-18.6v19.2s0,.1,0,.3c0,.1,0,.3.1.4.2.7.6,1.3,1.3,1.8.7.5,1.3.8,1.9.7,0,0,0,0,0,0h18.5v-7.3h7.3v14.7h-29.4c0,0-.2,0-.4,0-.2,0-.4-.1-.6-.2s-.4-.2-.6-.3c-.2,0-.3-.1-.3-.2-.2,0-.3-.2-.5-.3-.2-.1-.4-.3-.6-.4-1.2-.9-2.1-2-2.8-3.2-.6-1.2-1-2.3-1.2-3.4,0-.1,0-.3,0-.5,0-.2,0-.3,0-.4v-28.4h27.7l1.5.4,1.5.5c.5.2,1.1.6,1.8,1.1.7.5,1.3,1.1,1.8,1.8.4.5.7.9.8,1.4,0,.2.2.3.3.5,0,.2.2.4.3.6,0,0,.1.2.1.3.2.4.3.8.4,1.3,0,.2.1.5.2.8,0,.3,0,.5,0,.5v5.8Z"/>
    <path class="st3" d="M307.4,130.5l-10.4-.2c-1.4,0-2.6-.3-3.5-.9-1-.6-1.7-1.4-2.3-2.4-.6-1.1-1-2.3-1.3-3.8-.3-1.5-.4-3.1-.4-4.9l-.2-41.3h7.4l.2,10.5c0,.6.1,1.3.4,1.9.2.6.5,1.2.8,1.7.3.5.7.9,1.1,1.2.4.3.8.4,1.1.4h6.8v7.2c.1,0-10.1,0-10.1,0l.4,16.6c0,.6,0,1.3.2,2.1.2.7.4,1.4.7,2,.3.6.6,1.1,1,1.5.4.4.9.6,1.5.6h6.8v7.9Z"/>
    <path class="st3" d="M321.2,130c-.6,0-1.2-.3-2.1-.8-.8-.6-1.6-1.2-2.3-1.8-.6-.6-1.1-1.2-1.6-2.1-.5-.8-.9-1.7-1.3-2.6-.4-.9-.7-1.8-.9-2.7-.2-.9-.3-1.7-.3-2.4v-22.1h8.5v34.6Z"/>
    <path class="st3" d="M356,123.7v-19.4c0-.5-.1-.9-.4-1.3-.2-.4-.5-.8-.9-1.1-.4-.3-.7-.5-1.2-.7-.4-.2-.8-.3-1.2-.3h-18.8v19.5c0,.4.1.9.4,1.2s.6.7.9,1c.4.3.7.5,1.1.7.4.2.8.3,1.1.3h18.9ZM363.4,131.3h-30.1s-.1,0-.3-.1c-.2,0-.4-.2-.6-.3s-.4-.2-.6-.3c-.2,0-.3-.1-.3-.1-.8-.4-1.5-.9-2.1-1.6-.6-.7-1.2-1.4-1.6-2.2-.5-.8-.8-1.6-1.1-2.4-.3-.8-.4-1.5-.4-2.2v-28.9h27.9c1.1,0,2.2.3,3.3.8,1.1.6,2.1,1.3,3,2.2.9.9,1.6,1.9,2.1,3,.6,1.1.8,2.3.8,3.5v28.5Z"/>
    <path class="st3" d="M406,130.3h-7.3v-26.9c0-.5-.1-.9-.4-1.3-.2-.4-.5-.8-.9-1.1-.3-.3-.7-.6-1.1-.7-.4-.2-.8-.3-1.2-.3h-18.9v30.3c-.6,0-1.2-.3-1.8-.7-.7-.4-1.3-.8-2-1.3-.6-.4-1.1-1-1.5-1.5-.4-.6-.8-1.2-1.1-1.9-.3-.7-.6-1.3-.7-2-.2-.7-.2-1.2-.2-1.8v-28.8h27.9s0,0,.2,0c0,0,.2,0,.2,0,.2,0,.5,0,.7,0,.2,0,.5,0,.7.1.3,0,.6.2.9.3.3.1.5.2.7.3.6.2,1.1.6,1.7,1,.6.5,1.1,1,1.5,1.5.5.5.9,1.1,1.2,1.7.4.6.6,1.2.8,1.7,0,.2.2.5.3.9.1.4.2.7.1.7v29.4Z"/>
    <path class="st3" d="M447.9,103.8h-7.2c0-.2,0-.3,0-.6,0-.2,0-.4-.2-.6-.3-.7-.7-1.2-1.4-1.7-.7-.4-1.3-.7-1.8-.7h-18.2v4.4c0,.7.2,1.3.7,2,.5.6,1.1,1,1.8,1.2,0,0,0,0,0,.1h26.3v22.6h-27.7c-.2,0-.5,0-.8-.1-.4,0-.7-.2-1-.3-.3-.1-.6-.2-.9-.4-.3-.1-.4-.2-.5-.2-.8-.4-1.4-.9-2.1-1.6-.6-.7-1.1-1.4-1.6-2.1-.5-.8-.8-1.5-1.1-2.3-.3-.8-.4-1.5-.4-2.2v-2.1h7.2c0,.5,0,1,.2,1.5.2.5.5.9.8,1.2.3.4.7.6,1.1.9.4.2.9.3,1.3.3h18.3v-4.2c0-.4-.1-.8-.3-1.2-.2-.4-.5-.8-.8-1.1-.3-.3-.7-.6-1.1-.8-.4-.2-.9-.3-1.2-.2h-16.6c-.7,0-1.4-.2-2.3-.5-.9-.4-1.7-.8-2.5-1.4-.8-.6-1.5-1.3-2.1-2.1-.6-.8-1.1-1.6-1.3-2.5,0,0-.1-.4-.3-.9-.2-.5-.2-.9-.2-1.2v-13.9h27.1c1,0,2,.2,3.1.7,1.1.5,2,1.1,2.9,2,.9.8,1.6,1.8,2.1,2.9.6,1.1.8,2.2.8,3.3v2.1Z"/>
  </g>
  <path class="st1" d="M317,82.8c3.2,0,5.7,2.6,5.7,5.7s-2.6,5.7-5.7,5.7-5.7-2.6-5.7-5.7,2.6-5.7,5.7-5.7"/>
</svg>