<?xml version="1.0" encoding="UTF-8"?>
<svg id="Layer_1" xmlns="http://www.w3.org/2000/svg" version="1.1" viewBox="0 0 100 100">
  <!-- Generator: Adobe Illustrator 30.5.1, SVG Export Plug-In . SVG Version: 2.1.4 Build 3)  -->
  <defs>
    <style>
      .st0 {
        fill: #f58220;
      }

      .st1 {
        fill: #fff;
        fill-rule: evenodd;
      }

      .st2 {
        fill: #231f20;
      }

      .st3 {
        fill: #c7c8ca;
      }
    </style>
  </defs>
  <path class="st1" d="M15.5,96c-2.1-1-4.1-2.4-5.8-4.1-1.7-1.7-3.2-3.6-4.5-5.7-1.2-1.9-2.1-4-2.8-6.2-.6-1.9-1-4-1-6V1.9h72.1c3.2,0,6.3.8,9.2,2.2,3,1.4,5.7,3.3,8,5.6,2.3,2.3,4.3,4.9,5.7,7.9,1.5,2.9,2.3,6.1,2.3,9.4v71.3H21.3c-.5,0-1.1-.2-1.6-.4-.5-.2-1.1-.4-1.6-.6-.5-.2-1.1-.4-1.6-.7-.4-.2-.7-.3-1-.6"/>
  <rect class="st3" x="15.1" y="12.6" width="70.3" height="70.3"/>
  <path class="st0" d="M67.2,88v-46.9c0-1.1-.3-2.2-.9-3.2-.6-1-1.4-1.9-2.2-2.6-.9-.7-1.8-1.3-2.9-1.8-1-.4-2-.6-2.9-.6H11.1v47.1c0,1.1.3,2.1.9,3,.6,1,1.4,1.8,2.2,2.6.9.7,1.9,1.3,2.9,1.8,1,.4,1.9.6,2.7.6h47.4Z"/>
  <path class="st2" d="M94.6,18.5c-1.4-2.7-3.2-5.2-5.3-7.3-2.2-2.1-4.6-3.9-7.4-5.2-2.8-1.3-5.6-2-8.3-2H3.6v69.9c0,1.6.3,3.4.9,5.3.6,1.9,1.5,3.8,2.6,5.7,1.1,1.9,2.5,3.6,4.2,5.3,1.6,1.6,3.5,2.9,5.4,3.8,0,0,.2.2.7.4.5.2,1,.4,1.5.6.5.2,1,.4,1.5.6.5.2.8.3.9.3h75.4V26.9c0-2.8-.7-5.6-2.1-8.4ZM78.1,77.7H30.7c-.8,0-1.7-.2-2.7-.6-1-.4-2-1-2.9-1.8-.9-.7-1.6-1.6-2.2-2.6-.6-1-.9-2-.9-3V22.6h47.2c.9,0,1.9.2,2.9.6,1,.4,2,1,2.9,1.8.9.7,1.6,1.6,2.2,2.6.6,1,.9,2.1.9,3.2v46.9Z"/>
</svg>